<?xml version="1.0" encoding="utf-8"?>
<!-- Generator: Adobe Illustrator 22.1.0, SVG Export Plug-In . SVG Version: 6.00 Build 0)  -->
<svg version="1.1" id="Layer_1" xmlns="http://www.w3.org/2000/svg" xmlns:xlink="http://www.w3.org/1999/xlink" x="0px" y="0px"
	 viewBox="0 0 595.3 582.4" style="enable-background:new 0 0 595.3 582.4;" xml:space="preserve">
<style type="text/css">
	.st0{opacity:0.2;fill:#FABB58;enable-background:new    ;}
	.st1{fill:#FFFFFF;}
	.st2{fill:#DDDDDD;}
	.st3{fill:#FABB58;}
	.st4{fill:#2A94F4;}
	.st5{fill:#01384F;}
	.st6{fill:#D9D9D9;}
	.st7{fill:none;}
	.st8{fill:#ECECEC;}
	.st9{fill:#F5F5F5;}
</style>
<path class="st0" d="M88.4,445.9c-12.7-15-37.7-47.6-43.1-96.1c-6.5-58.1,15.4-134.5,64-153.9c47.5-18.9,74.6,34.7,136.1,21.3
	c61.3-13.3,62.5-72.8,128.1-91.6c47.4-13.6,100.4,1.9,131.6,26.7c65.5,51.9,78.4,178.7,4.4,293.5L88.4,445.9L88.4,445.9z"/>
<g>
	<path class="st1" d="M360.3,430.1c-3.4,0-6.2-2.8-6.2-6.2v-7.1h24v-30.1h-13.3c-2.7,0-4.9,2.2-4.9,4.9c0,2.7,2.2,4.9,4.9,4.9h0.5
		c0.2,0.6,0.4,1.8,0.4,3.3c0,2-1,3.3-1.6,3.3h-3.8c-5.9,0-10.7,4.8-10.7,10.7v10.1c0,5.9,4.8,10.7,10.7,10.7H378v-4.4H360.3z"/>
	<path class="st2" d="M396,403h-3.8c-0.5,0-1.6-1.2-1.6-3.3c0-1.5,0.2-2.6,0.3-3.3h0.4c2.7,0,4.9-2.2,4.9-4.9c0-2.7-2.2-4.9-4.9-4.9
		H378v30.1h24.2v7.1c0,3.4-2.8,6.2-6.2,6.2H378v4.4H396c5.9,0,10.7-4.8,10.7-10.7v-10.1C406.6,407.8,401.8,403,396,403z"/>
	<path class="st3" d="M396,430.1c3.4,0,6.2-2.8,6.2-6.2v-7.1H378v13.3H396z"/>
	<path class="st3" d="M354.1,423.9c0,3.4,2.8,6.2,6.2,6.2H378v-13.3h-24V423.9z"/>
	<path class="st2" d="M405.7,275.7c-5.7-4.5-11.7-11.4-11.7-17.3c0-0.7-0.2-16.4-0.2-22.3h0.7c3.5,0,6.4-2.9,6.4-6.4
		c0-3.5-2.9-6.4-6.4-6.4h-15.2v2.2v2.2v4v2.2v2.2v71.4h38h2.2c0,0.5,0.1,1,0.1,1.5c0,22.2-18,40.1-40.1,40.1c-0.1,0-0.1,0-0.2,0v2.2
		c0.1,0,0.1,0,0.2,0c23.4,0,42.4-19,42.4-42.4C421.8,295.9,415.9,283.8,405.7,275.7z"/>
	<path class="st3" d="M379.2,346.8c0.1,0,0.1,0,0.2,0c20.9,0,37.9-17,37.9-37.9c0-0.5-0.1-1-0.1-1.5h-38V346.8z"/>
	<g>
		<path class="st2" d="M394.3,320c0,3.5-2.8,6.3-6.3,6.3c-3.5,0-6.3-2.8-6.3-6.3c0-3.5,2.8-6.3,6.3-6.3
			C391.5,313.7,394.3,316.5,394.3,320z"/>
	</g>
	<g>
		<path class="st4" d="M390.9,316c0.8,0.9,1.4,2.1,1.4,3.4c0,2.7-2.2,4.9-4.9,4.9c-1,0-1.9-0.3-2.6-0.8c0.9,0.9,2.2,1.5,3.6,1.5
			c2.7,0,4.9-2.2,4.9-4.9C393.2,318.4,392.2,316.9,390.9,316z"/>
	</g>
	<path class="st3" d="M341.6,307.4c0,0.5-0.1,1-0.1,1.5c0,20.9,16.9,37.8,37.8,37.9v-39.4H341.6z"/>
	<path class="st3" d="M371.6,382.6c-2.9-2.2-3.4-6.5-3.4-6.5l2.6-6c0,0,4.2-4,4-4.3c-0.2-0.3,1.7-4.9,1.7-4.9l0.6-2.8l2.4,2.3
		l4.2,3.1l3.9,5.7c0,0,3.1,4.3,2.8,4.6c-0.2,0.3,0,5.7,0,5.7l-2.8,3.1c0,0-0.5,0.8-1.6,2.6C394.1,373.5,374.5,359.9,371.6,382.6z"/>
	<g>
		<path class="st1" d="M379.4,314.9c0,2.9-2.3,5.2-5.2,5.2c-2.9,0-5.2-2.3-5.2-5.2c0-2.9,2.3-5.2,5.2-5.2
			C377.1,309.7,379.4,312,379.4,314.9z"/>
	</g>
	<g>
		<path class="st4" d="M376.4,311.7c0.6,0.7,1,1.5,1,2.5c0,2.1-1.7,3.9-3.9,3.9c-0.8,0-1.4-0.3-2-0.6c0.7,0.8,1.7,1.4,2.9,1.4
			c2.1,0,3.9-1.7,3.9-3.9C378.3,313.6,377.5,312.4,376.4,311.7z"/>
	</g>
	<g>
		<path class="st3" d="M372.1,383c-2-1.5-3.9-3.4-4.6-6.2c-0.3-1.4-0.1-2.8,0.3-4.2c0.2-0.7,0.5-1.2,0.8-1.9
			c0.3-0.6,0.7-1.2,1.1-1.7c1.6-2.1,3.4-3.8,4.3-5.8c0.1-0.2,0.2-0.5,0.3-0.7c0-0.1,0.1-0.3,0.1-0.3l0.1-0.5
			c0.1-0.6,0.1-0.9,0.1-1.4c0-1-0.3-2.1-0.6-3.3l-1.3-5l4,3.3c2.3,1.9,4.6,3.8,6.8,5.9c2.2,2.1,4.4,4.4,6,7.2
			c1.6,2.7,2.5,6.1,1.9,9.3c-0.2,0.9-0.5,1.5-0.9,2.3c-0.4,0.7-0.9,1.3-1.4,1.9c-1,1.2-2.1,2.2-3.1,3.3c0.7-1.3,1.6-2.5,2.4-3.8
			c0.4-0.6,0.7-1.3,1-1.9c0.2-0.5,0.4-1.4,0.4-1.9c0.1-2.8-0.9-5.4-2.6-7.7c-3.2-4.6-8.1-8-12.7-12l2.7-1.6c0.3,1.2,0.6,2.6,0.6,4.1
			c0,0.7-0.1,1.7-0.3,2.3l-0.1,0.5l-0.2,0.6c-0.1,0.4-0.3,0.7-0.5,1c-1.4,2.6-3.5,4.2-5.1,6c-0.4,0.4-0.8,0.9-1.1,1.3
			c-0.3,0.4-0.6,0.9-0.9,1.4c-0.5,1-0.7,2.1-0.7,3.2C369,378.9,370.5,381,372.1,383z"/>
	</g>
	<g>
		<g>
			<path class="st3" d="M370.1,216.5c0,0-0.4-0.2-1.1-0.5c-0.6-0.3-1.7-1.2-2.3-2.6c-0.4-0.7-0.4-1.7-0.4-2.5c0-0.9,0.3-1.8,0.5-2.6
				c0.6-1.6,1.3-3,1.9-4.3c0.2-0.6,0.6-1.2,0.7-1.8c0.2-0.6,0.4-1.2,0.4-1.8c0-0.7-0.1-1.2-0.2-2c-0.1-0.7-0.2-1.3-0.3-1.9
				c-0.4-2.4-0.5-4.1-0.5-4.1s1.2,1.3,2.4,3.5c0.3,0.5,0.6,1.2,0.9,1.8c0.3,0.6,0.7,1.5,0.8,2.3c0.2,0.9,0.4,1.9,0.3,2.8
				c0,1-0.2,1.9-0.6,2.8c-0.6,1.8-1.5,3.2-2.1,4.4c-0.3,0.6-0.6,1.1-0.8,1.6c-0.2,0.5-0.3,0.9-0.4,1.4c-0.1,0.5,0,0.9,0,1.3
				c0.1,0.4,0.1,0.8,0.3,1.2C370,216,370.1,216.5,370.1,216.5z"/>
		</g>
		<g>
			<path class="st3" d="M379.8,217.4c0,0-0.5-0.5-1.3-1.3c-0.7-0.9-1.8-2.5-2.2-4.6c-0.5-2.1-0.4-4.8,0.1-7.3
				c0.6-2.5,1.3-4.9,1.9-7.3c0.3-1.2,0.6-2.4,0.7-3.5c0.1-0.6,0.2-1.2,0.2-1.7l0.1-0.8l0-0.9c0-2.5-0.3-4.6-0.4-6.5
				c-0.4-3.9-0.5-6.5-0.5-6.5s1.2,2.4,2.4,6.1c0.6,1.9,1.3,4.3,1.7,6.6l0.2,0.9l0.1,1.1c0.1,0.7,0.1,1.4,0.1,2.1
				c0,1.4-0.1,2.8-0.4,4.2c-0.5,2.7-1.4,5.2-2.1,7.4c-0.7,2.2-1.2,4.2-1.4,5.9c-0.2,1.8,0.1,3.3,0.3,4.4
				C379.7,216.7,379.8,217.4,379.8,217.4z"/>
		</g>
		<g>
			<path class="st3" d="M390.3,217.4c0,0-0.4-0.2-1.1-0.5c-0.7-0.3-1.7-1.2-2.3-2.6c-0.3-0.7-0.4-1.7-0.4-2.5c0-0.9,0.3-1.8,0.5-2.6
				c0.6-1.6,1.3-3,1.9-4.3c0.3-0.6,0.6-1.2,0.7-1.8c0.2-0.6,0.4-1.2,0.4-1.8c0-0.7-0.1-1.2-0.2-2c-0.1-0.7-0.2-1.3-0.3-1.9
				c-0.4-2.4-0.5-4.1-0.5-4.1s1.2,1.3,2.4,3.5c0.3,0.5,0.6,1.2,0.9,1.8c0.3,0.6,0.7,1.5,0.8,2.3c0.2,0.9,0.4,1.9,0.3,2.8
				c0,1-0.2,1.9-0.6,2.8c-0.6,1.8-1.5,3.2-2.1,4.4c-0.3,0.6-0.6,1.1-0.8,1.6c-0.2,0.5-0.3,0.9-0.4,1.4c-0.1,0.5,0,0.9,0,1.3
				c0.1,0.4,0.1,0.8,0.3,1.2C390.2,216.9,390.3,217.4,390.3,217.4z"/>
		</g>
	</g>
	<g>
		<path class="st4" d="M347.4,304.5c0,0,0-0.6,0-1.7c0.1-1.1,0-2.6,0.7-4.4c0.6-1.8,1.3-4.1,2.6-6.1c0.6-1,1.2-2.1,1.9-3.1
			c0.8-1,1.6-1.9,2.3-2.9c1.7-1.9,3.5-3.6,5.3-5c1.9-1.4,3.6-2.7,5.3-3.5c1.6-0.9,3.1-1.5,4.2-1.8c1-0.3,1.7-0.5,1.7-0.5
			s-0.4,0.5-1.1,1.4c-0.7,0.8-1.7,2-2.8,3.3c-1.2,1.3-2.5,2.9-4,4.5c-0.8,0.8-1.4,1.7-2.2,2.5c-0.8,0.8-1.6,1.7-2.3,2.6
			c-1.6,1.7-3.1,3.4-4.4,5.1c-0.7,0.8-1.5,1.6-2,2.4c-0.5,0.8-1.1,1.5-1.7,2.2c-1.2,1.3-1.8,2.8-2.5,3.6
			C347.8,304,347.4,304.5,347.4,304.5z"/>
	</g>
	<g>
		<rect x="305.3" y="432.3" class="st5" width="186.7" height="14.4"/>
	</g>
	<path class="st1" d="M339.4,307.4c0,0.5-0.1,1-0.1,1.5C339.3,308.4,339.3,307.9,339.4,307.4L339.4,307.4z"/>
	<path class="st1" d="M419.5,307.4L419.5,307.4c0,0.5,0.1,1,0.1,1.5C419.6,308.4,419.5,307.9,419.5,307.4z"/>
	<path class="st2" d="M417.3,308.9c0,20.9-17,37.9-37.9,37.9c-0.1,0-0.1,0-0.2,0v2.2c0.1,0,0.1,0,0.2,0c22.2,0,40.1-18,40.1-40.1
		c0-0.5-0.1-1-0.1-1.5h-2.2C417.3,307.9,417.3,308.4,417.3,308.9z"/>
	<path class="st1" d="M341.5,308.9c0-0.5,0.1-1,0.1-1.5h-2.2c0,0.5-0.1,1-0.1,1.5c0,22.1,17.9,40,40,40.1v-2.2
		C358.4,346.7,341.5,329.8,341.5,308.9z"/>
	<path class="st1" d="M364.4,223.2c-3.5,0-6.4,2.9-6.4,6.4c0,3.5,2.9,6.4,6.4,6.4h0.5v22.3c0,5.9-6.1,12.8-11.7,17.3
		c-10.2,8.1-16.1,20.2-16.1,33.2c0,23.3,18.9,42.3,42.2,42.4V349c-22.1-0.1-40-18-40-40.1c0-0.5,0.1-1,0.1-1.5h2.2h37.7V236v-2.2
		v-2.2v-4v-2.2v-2.2H364.4z"/>
	<g>
		<path class="st5" d="M458.2,335.4c0,2.2-1.8,4-4,4H335.4c-2.2,0-4-1.8-4-4l0,0c0-2.2,1.8-4,4-4h118.8
			C456.4,331.3,458.2,333.1,458.2,335.4L458.2,335.4z"/>
	</g>
	<g>
		<rect x="449.3" y="225.4" class="st5" width="8.9" height="206.9"/>
	</g>
	<circle class="st4" cx="453.7" cy="335.4" r="16.1"/>
	<path class="st5" d="M453.7,354.1c-10.3,0-18.8-8.4-18.8-18.8s8.4-18.8,18.8-18.8c10.3,0,18.8,8.4,18.8,18.8
		S464.1,354.1,453.7,354.1z M453.7,322c-7.4,0-13.4,6-13.4,13.4c0,7.4,6,13.4,13.4,13.4c7.4,0,13.4-6,13.4-13.4
		C467.1,328,461.1,322,453.7,322z"/>
	<path class="st3" d="M381.7,295.4c-2,0-3.6,1.6-3.6,3.6c0,2,1.6,3.6,3.6,3.6c2,0,3.6-1.6,3.6-3.6
		C385.3,297,383.7,295.4,381.7,295.4z M381.8,301.7c-1,0-1.8-0.6-2.3-1.4c0.5,0.4,1.1,0.7,1.8,0.7c1.4,0,2.5-1.1,2.5-2.5
		c0-0.4-0.1-0.8-0.3-1.1c0.5,0.5,0.8,1.1,0.8,1.8C384.3,300.6,383.2,301.7,381.8,301.7z"/>
	<g>
		<g>
			<path class="st6" d="M387.5,421.3c-8.9-7.6-13.5-16.7-12.6-25.2c0.3-3,1-5.9,1.7-8.6c0.9-3.9,1.8-7.6,1.7-11.6l4.4-0.2
				c0.2,4.6-0.8,8.7-1.8,12.8c-0.7,2.7-1.3,5.3-1.6,8.1c-1,9.9,7.4,18.2,11.1,21.3L387.5,421.3z"/>
		</g>
	</g>
</g>
<g>
	<path class="st7" d="M218.1,380.5l5-3.7l2.2-2.1l1.1-1l0.6-0.5l0.1-0.1l2.4-2.9c0.7-0.9,1.9-2.1,2.1-2.7c1.6-2.5,3.8-6,5.1-9.8
		c0.7-1.9,1.4-3.8,1.9-5.8c0.6-1.9,1-4,1.3-6.1c1.2-8.2,1-16.9-0.6-25.1c-1.4-7.2-3.6-14-6.6-20.2c-0.6,0-1.1,0.1-1.7,0.1
		c-10.7,0-19.5-8.7-19.5-19.5c0-2.6,0.5-5.1,1.4-7.3l-9.6-9.6l-8.6,8.6v117.9c6.2-1.6,12.2-3.9,17.8-6.9
		C214.6,382.8,216.3,381.6,218.1,380.5z"/>
	
		<rect x="140.1" y="281" transform="matrix(0.7073 -0.7069 0.7069 0.7073 -162.7241 190.0423)" class="st5" width="16.1" height="21"/>
	<path class="st5" d="M135.2,372.6l3.3-3.3l-4.3-4.3l-3.4,3.4C132.5,369.5,134,370.9,135.2,372.6z"/>
	<path class="st5" d="M111.5,387.7l-1.6,1.6l-12.5-12.5l-4.3,4.3l16.7,16.7l0,0l0,0l5.7-5.7C113.9,391,112.6,389.5,111.5,387.7z"/>
	<path class="st8" d="M217.5,396.5c2.4-1.1,4.7-2.5,7-3.8c2.3-1.4,4.5-3.1,6.7-4.7l3.1-2.8l1.5-1.4l0.8-0.7l0.4-0.3l0.8-0.9l2.3-2.6
		c0.8-1,1.4-1.5,2.4-3c3.8-5.3,6.4-10.3,8.2-15.5l1.4-3.9c0.4-1.3,0.6-2.7,0.9-4c0.7-2.7,1-5.3,1.3-8c1.1-10.6-0.2-21-3-30.4
		c-2-6.6-4.7-12.7-8-18.3c-2.9,2.4-6.6,4-10.6,4.3c2.9,6.2,5.2,13,6.6,20.2c1.6,8.2,1.8,16.9,0.6,25.1c-0.3,2.1-0.6,4.1-1.3,6.1
		c-0.4,2-1.1,3.9-1.9,5.8c-1.3,3.8-3.5,7.3-5.1,9.8c-0.2,0.6-1.4,1.8-2.1,2.7l-2.4,2.9l-0.1,0.1l-0.6,0.5l-1.1,1l-2.2,2.1l-5,3.7
		c-1.8,1.1-3.5,2.3-5.4,3.3c-5.6,3-11.6,5.3-17.8,6.9v12.7C202.5,402.2,210.1,400,217.5,396.5z"/>
	<path class="st8" d="M192.5,407.8c-9.7,0.8-19.1-0.1-27.8-2.4c-2.2-0.5-4.3-1.2-6.3-2.1c-2.1-0.7-4.1-1.6-6-2.6
		c-1.9-0.9-3.9-2.2-5.8-3.4c-2.1-1.3-3.1-2.4-4.5-3.6l-1.3-1.1l-0.2-0.2c0.5,0.4,1.1,0.8,1.8,1.2c1.9,1.3,4,2.6,5.8,3.4
		c1.9,1,3.9,1.9,6,2.6c2.1,0.8,4.2,1.5,6.3,2.1c8.7,2.3,18.1,3.2,27.8,2.4c2.2-0.2,4.4-0.4,6.6-0.8v-12.7c-2.1,0.5-4.1,1-6.2,1.4
		c-8.3,1.5-16.7,1.9-24.4,1.1c-2-0.1-3.8-0.4-5.6-0.8c-1.9-0.3-3.6-0.8-5.3-1.3c-1.9-0.4-3.1-1-4.5-1.5c-1.3-0.2-3.2-1.6-4.9-2.5
		c-2.3-1.4-4.4-2.7-6.5-4c-0.9,4.8-4.2,8.8-8.6,10.5c0.6,0.6,1.1,1.2,1.7,1.8l2,2l1,1l1.5,1.3c1.6,1.3,2.6,2.5,5,4
		c2.1,1.4,4.4,2.9,6.5,3.9c2.1,1.1,4.4,2.2,6.7,3c2.3,0.9,4.7,1.7,7.1,2.3c1.6,0.4,3.3,0.8,4.9,1.1c-18.2,6.8-30.3,18.6-30.3,32
		h59.9v-38.4C194.1,407.7,193.3,407.8,192.5,407.8z"/>
	<path class="st8" d="M218.7,409.4c1.9-0.8,3.9-1.6,5.8-2.5c2.7-1.2,5.3-2.8,7.9-4.3c2.6-1.6,5-3.5,7.5-5.3l3.5-3.1l1.7-1.6l0.9-0.8
		l0.4-0.4l0.9-1l2.5-2.9c0.9-1.1,1.6-1.7,2.7-3.3c4.3-6,7.2-11.6,9.2-17.4l1.5-4.4c0.4-1.5,0.7-3,1.1-4.5c0.8-3,1.2-6,1.4-9
		c1.3-12-0.2-23.6-3.3-34.1c-3-10-7.5-19.1-13.2-26.9c-1,2.7-2.7,5.2-4.8,7.2c4.7,6.7,8.5,14.5,11.1,23c2.8,9.4,4.1,19.7,3,30.4
		c-0.2,2.7-0.6,5.3-1.3,8c-0.3,1.3-0.5,2.7-0.9,4l-1.4,3.9c-1.8,5.2-4.4,10.2-8.2,15.5c-1,1.5-1.6,2-2.4,3l-2.3,2.6l-0.8,0.9
		l-0.4,0.4l-0.8,0.7l-1.5,1.4l-3.1,2.7c-2.2,1.6-4.4,3.3-6.7,4.7c-2.3,1.3-4.6,2.7-7,3.8c-8.8,4.2-17.9,6.5-26.9,7.5V446h54.5
		c0-17-23.1-30.9-52.3-31.9c1,0,2.1-0.1,3.1-0.1c30.6,0,55.4,14.3,55.4,32h11.1C266.7,428.6,246.4,413.9,218.7,409.4z"/>
	<path class="st8" d="M188.3,404.2c-9.7,0.8-19.1-0.1-27.8-2.4c-2.2-0.5-4.3-1.2-6.3-2.1c-2.1-0.7-4.1-1.6-6-2.6
		c-1.9-0.9-3.9-2.2-5.8-3.4c-0.7-0.4-1.3-0.8-1.8-1.2l0.2,0.2l1.3,1.1c1.4,1.2,2.3,2.3,4.5,3.6c1.9,1.3,4,2.6,5.8,3.4
		c1.9,1,3.9,1.9,6,2.6c2.1,0.8,4.2,1.5,6.3,2.1c8.7,2.3,18.1,3.2,27.8,2.4c0.8-0.1,1.6-0.2,2.4-0.2v-4.2
		C192.7,403.7,190.5,404,188.3,404.2z"/>
	<path class="st8" d="M251.4,314.5c2.8,9.4,4.1,19.7,3,30.4c-0.2,2.7-0.6,5.3-1.3,8c-0.3,1.3-0.5,2.7-0.9,4l-1.4,3.9
		c-1.8,5.2-4.4,10.2-8.2,15.5c-1,1.5-1.6,2-2.4,3l-2.3,2.6l-0.8,0.9l-0.4,0.3l-0.8,0.7l-1.5,1.4l-3.1,2.8c-2.2,1.6-4.4,3.2-6.7,4.7
		c-2.3,1.3-4.6,2.7-7,3.8c-7.4,3.6-15.1,5.8-22.7,6.9v4.2c8.9-0.9,18.1-3.3,26.9-7.5c2.4-1.1,4.7-2.5,7-3.8c2.3-1.4,4.5-3.1,6.7-4.7
		l3.1-2.7l1.5-1.4l0.8-0.7l0.4-0.4l0.8-0.9l2.3-2.6c0.8-1,1.4-1.5,2.4-3c3.8-5.3,6.4-10.3,8.2-15.5l1.4-3.9c0.4-1.3,0.6-2.7,0.9-4
		c0.7-2.7,1-5.3,1.3-8c1.1-10.6-0.2-21-3-30.4c-2.5-8.5-6.4-16.2-11.1-23c-0.4,0.4-0.7,0.7-1.1,1
		C246.7,301.7,249.4,307.9,251.4,314.5z"/>
	<path class="st4" d="M222.7,284.9c5.3-2.4,9.6-6.8,12-12.1c1.2,1,2.4,2,3.7,3.1c2.3,2,4.5,4.3,6.5,6.7c0.1-0.5,0.2-1,0.2-1.6
		c0-7.8-6.3-14.1-14.1-14.1c-7.8,0-14.1,6.3-14.1,14.1c0,7.4,5.7,13.4,13,14c-1.4-2.4-2.9-4.7-4.5-6.8
		C224.6,287.2,223.7,286,222.7,284.9z"/>
	<path class="st4" d="M240.4,291.6c-0.5-0.7-1-1.5-1.5-2.2c-2.5-3.2-5.1-6.2-8-8.8c0,0,0,0,0,0c1.1,0.9,2.1,1.8,3.3,2.8
		c2.5,2.2,4.8,4.7,7,7.4c2.1-2.2,3.4-5,3.8-8.2c-2.1-2.4-4.2-4.7-6.5-6.7c-1.3-1.1-2.5-2.1-3.7-3.1c-2.5,5.3-6.8,9.7-12,12.1
		c0.9,1.1,1.9,2.3,2.7,3.4c1.6,2.1,3.1,4.4,4.5,6.8c0.4,0,0.8,0.1,1.1,0.1C234.6,295.2,237.9,293.8,240.4,291.6z"/>
	<path class="st4" d="M234.2,283.4c-1.1-1-2.2-1.9-3.3-2.8c0,0,0,0,0,0c2.8,2.6,5.5,5.6,8,8.8c0.5,0.7,1,1.5,1.5,2.2
		c0.3-0.3,0.6-0.5,0.9-0.8C239.1,288.1,236.7,285.6,234.2,283.4z"/>
	<path class="st4" d="M123.6,371.9c-4.8,0-8.7,3.9-8.7,8.7c0,1.1,0.2,2.2,0.6,3.2l11.3-11.3C125.8,372.1,124.7,371.9,123.6,371.9z"
		/>
	<path class="st4" d="M123.6,389.3c0.3,0,0.7-0.1,1-0.1c-0.5-0.6-1-1.1-1.6-1.7c3.3-2.2,6.1-5,7.8-8.5c0.5,0.3,0.9,0.6,1.4,0.9
		c-0.1-1.2-0.4-2.4-1-3.4l-11.7,11.7C120.7,388.9,122.1,389.3,123.6,389.3z"/>
	<path class="st4" d="M126.7,372.5l-11.3,11.3c0.8,1.9,2.2,3.5,4,4.5l11.7-11.7C130.3,374.7,128.7,373.2,126.7,372.5z"/>
	<path class="st4" d="M123,387.5c0.5,0.6,1.1,1.1,1.6,1.7c4.3-0.5,7.7-4.2,7.7-8.6c0-0.2-0.1-0.5-0.1-0.7c-0.5-0.3-0.9-0.6-1.4-0.9
		C129.1,382.5,126.3,385.4,123,387.5z"/>
	<path class="st5" d="M135,380.6c0,0.3-0.1,0.6-0.1,1c0.8,0.5,1.7,1,2.5,1.6c0.1-0.8,0.3-1.7,0.3-2.5c0-3-0.9-5.7-2.5-8l-1.9,1.9
		C134.3,376.3,135,378.4,135,380.6z"/>
	<path class="st5" d="M123.6,392c-2.2,0-4.3-0.7-6-1.8l-1.9,1.9c2.3,1.6,5,2.5,8,2.5c1.8,0,3.6-0.4,5.2-1c-0.7-0.7-1.4-1.5-2.1-2.1
		C125.7,391.8,124.7,392,123.6,392z"/>
	<path class="st5" d="M112.2,380.6c0-6.3,5.1-11.4,11.4-11.4c1.9,0,3.6,0.5,5.2,1.3l2-2c-2.1-1.2-4.5-2-7.1-2
		c-7.8,0-14.1,6.3-14.1,14.1c0,2.6,0.8,5,2,7.1l2-2C112.7,384.2,112.2,382.5,112.2,380.6z"/>
	<path class="st5" d="M113.5,385.7l-2,2c1,1.8,2.4,3.3,4.1,4.4l1.9-1.9C115.8,389.1,114.4,387.6,113.5,385.7z"/>
	<path class="st5" d="M133.2,374.5l1.9-1.9c-1.2-1.7-2.7-3-4.4-4.1l-2,2C130.6,371.4,132.1,372.8,133.2,374.5z"/>
	<path class="st5" d="M137.4,383.1c-0.9-0.5-1.7-1-2.5-1.6c-0.4,4.8-3.7,8.7-8.2,10c0.7,0.7,1.4,1.4,2.1,2.1
		C133.2,391.9,136.5,387.9,137.4,383.1z"/>
	<path class="st5" d="M133.2,374.5l-2,2c0.5,1,0.9,2.2,1,3.4c0.9,0.5,1.8,1.1,2.7,1.7c0-0.3,0.1-0.6,0.1-1
		C135,378.4,134.3,376.3,133.2,374.5z"/>
	<path class="st5" d="M124.6,389.2c-0.3,0-0.7,0.1-1,0.1c-1.5,0-2.9-0.4-4.1-1.1l-2,2c1.8,1.1,3.8,1.8,6,1.8c1.1,0,2.1-0.2,3.1-0.5
		c0,0,0,0,0,0C126,390.7,125.3,389.9,124.6,389.2z"/>
	<path class="st5" d="M114.9,380.6c0-4.8,3.9-8.7,8.7-8.7c1.1,0,2.2,0.2,3.2,0.6l2-2c-1.6-0.8-3.3-1.3-5.2-1.3
		c-6.3,0-11.4,5.1-11.4,11.4c0,1.9,0.5,3.6,1.3,5.2l2-2C115.1,382.8,114.9,381.7,114.9,380.6z"/>
	<path class="st5" d="M131.2,376.5l2-2c-1.1-1.7-2.6-3.1-4.5-4.1l-2,2C128.7,373.2,130.3,374.7,131.2,376.5z"/>
	<path class="st5" d="M115.5,383.7l-2,2c0.9,1.8,2.3,3.4,4.1,4.5l2-2C117.7,387.3,116.2,385.7,115.5,383.7z"/>
	<path class="st5" d="M132.3,380.6c0,4.5-3.4,8.1-7.7,8.6c0.7,0.7,1.4,1.5,2.1,2.3c0,0,0,0,0,0c4.5-1.3,7.8-5.2,8.2-10
		c-0.9-0.6-1.8-1.1-2.7-1.7C132.3,380.1,132.3,380.3,132.3,380.6z"/>
	<polygon class="st8" points="213.4,254.2 245.9,221.7 219,194.8 194.9,219 194.9,235.6 	"/>
	<polygon class="st8" points="194.9,255.6 194.9,272.8 203.4,264.2 	"/>
	<polygon class="st8" points="176.6,237.3 140.9,272.9 146.4,278.4 148.3,276.5 163.1,291.3 161.2,293.2 167.8,299.8 194.9,272.8 
		194.9,255.6 	"/>
	<polygon class="st8" points="194.9,219 186.5,227.3 194.9,235.6 	"/>
	
		<rect x="153.4" y="274.4" transform="matrix(0.7072 -0.7071 0.7071 0.7072 -156.0998 192.8403)" class="st9" width="2.7" height="21"/>
	
		<rect x="170.9" y="223.5" transform="matrix(0.7068 -0.7074 0.7074 0.7068 -109.6007 192.8993)" class="st5" width="14.1" height="10.3"/>
	<path class="st5" d="M213,273.7c1.8-4.5,5.3-8.2,9.7-10.2l-9.3-9.3l-10,10L213,273.7z"/>
	<polygon class="st5" points="194.9,255.6 203.4,264.2 213.4,254.2 194.9,235.6 	"/>
	<polygon class="st5" points="194.9,235.6 186.5,227.3 176.6,237.3 194.9,255.6 	"/>
	<polygon class="st5" points="263.6,215.5 224.2,176.1 219,194.8 245.9,221.7 	"/>
	<path class="st8" d="M140.8,367l-2.3,2.3l0.1,0.1c1.5,1.5,3.9,1.5,5.4,0c1.5-1.5,1.5-3.9,0-5.4L91,311.1c-1.5-1.5-3.9-1.5-5.4,0
		c-1.5,1.5-1.5,3.9,0,5.4l48.6,48.6l2.3-2.3L140.8,367z"/>
	<rect x="135.8" y="363" transform="matrix(0.707 -0.7072 0.7072 0.707 -218.5889 204.4504)" class="st8" width="3.3" height="6"/>
	<polygon class="st8" points="83.3,362.7 97.4,376.8 101,373.3 76.5,348.8 64.4,360.9 88.9,385.4 93.1,381.1 79.1,367 	"/>
	
		<rect x="85.2" y="362" transform="matrix(0.7074 -0.7068 0.7068 0.7074 -237.0497 171.1752)" class="st5" width="6" height="19.9"/>
	<path class="st8" d="M200.3,414.1c-1.1,0-2.1,0.1-3.1,0.1c29.1,0.9,52.3,14.8,52.3,31.9h6.3C255.6,428.4,230.8,414.1,200.3,414.1z"
		/>
	<path class="st5" d="M219.5,268.9c3-2.8,7.1-4.6,11.5-4.6c9.3,0,16.8,7.5,16.8,16.8c0,1.5-0.2,2.9-0.6,4.3c0.4,0.5,0.7,0.9,1.1,1.4
		c0.3,0.4,0.6,0.8,0.9,1.2c0.8-2.1,1.3-4.5,1.3-6.9c0-10.8-8.7-19.5-19.5-19.5c-3,0-5.8,0.7-8.4,1.9l1.1,1.1L219.5,268.9z"/>
	<path class="st5" d="M231,297.9c-9.3,0-16.8-7.5-16.8-16.8c0-4.5,1.8-8.5,4.6-11.5l-5,5l-0.8-0.8c-0.9,2.3-1.4,4.7-1.4,7.3
		c0,10.7,8.7,19.5,19.5,19.5c0.6,0,1.1,0,1.7-0.1c-0.4-0.9-0.8-1.8-1.3-2.6C231.4,297.9,231.2,297.9,231,297.9z"/>
	<path class="st5" d="M247.3,285.4c-0.8,2.9-2.3,5.5-4.3,7.6c0,0,0.1,0.1,0.1,0.1c0.5,0.7,0.9,1.4,1.4,2.1c2.1-2,3.7-4.4,4.8-7.2
		c-0.3-0.4-0.6-0.8-0.9-1.2C248,286.3,247.7,285.8,247.3,285.4z"/>
	<path class="st5" d="M231.5,297.9c0.4,0.8,0.8,1.7,1.3,2.6c4-0.4,7.7-1.9,10.6-4.3c-0.5-0.8-0.9-1.5-1.4-2.3
		C239.1,296.3,235.5,297.8,231.5,297.9z"/>
	<path class="st5" d="M243,292.9c-0.3,0.3-0.7,0.6-1,1c0.5,0.8,1,1.5,1.4,2.3c0.4-0.3,0.8-0.7,1.1-1c-0.5-0.7-0.9-1.4-1.4-2.1
		C243,293,243,293,243,292.9z"/>
	<path class="st5" d="M231,297.9c0.2,0,0.3,0,0.5,0c0,0,0-0.1-0.1-0.1c-0.5-0.9-1-1.8-1.5-2.7c-7.3-0.6-13-6.6-13-14
		c0-7.8,6.3-14.1,14.1-14.1c7.8,0,14.1,6.3,14.1,14.1c0,0.5-0.1,1-0.2,1.6c0.8,0.9,1.5,1.8,2.3,2.7c0.4-1.4,0.6-2.8,0.6-4.3
		c0-9.3-7.5-16.8-16.8-16.8c-4.5,0-8.5,1.8-11.5,4.6l-0.7,0.7c-2.8,3-4.6,7.1-4.6,11.5C214.2,290.4,221.8,297.9,231,297.9z"/>
	<path class="st5" d="M231,295.2c-0.4,0-0.8-0.1-1.1-0.1c0.5,0.9,1.1,1.7,1.5,2.7c0,0,0,0.1,0.1,0.1c4-0.1,7.6-1.6,10.4-4
		c-0.5-0.8-1-1.5-1.5-2.3C237.9,293.8,234.6,295.2,231,295.2z"/>
	<path class="st5" d="M241.3,290.8c0.6,0.7,1.1,1.4,1.7,2.1c2-2.1,3.5-4.7,4.3-7.6c-0.7-0.9-1.5-1.8-2.3-2.7
		C244.7,285.8,243.3,288.6,241.3,290.8z"/>
	<path class="st5" d="M240.4,291.6c0.5,0.8,1,1.5,1.5,2.3c0.4-0.3,0.7-0.6,1-1c-0.6-0.7-1.1-1.4-1.7-2.1
		C241,291.1,240.7,291.3,240.4,291.6z"/>
	<path class="st5" d="M213,273.7l0.8,0.8l5-5c0.2-0.2,0.4-0.5,0.7-0.7l4.3-4.3l-1.1-1.1C218.3,265.6,214.8,269.2,213,273.7z"/>
	<path d="M218.8,269.5l0.7-0.7C219.3,269.1,219.1,269.3,218.8,269.5z"/>
</g>
</svg>
