<?xml version="1.0" encoding="utf-8"?>
<!-- Generator: Adobe Illustrator 23.0.0, SVG Export Plug-In . SVG Version: 6.00 Build 0)  -->
<svg version="1.1" id="Layer_1" xmlns="http://www.w3.org/2000/svg" xmlns:xlink="http://www.w3.org/1999/xlink" x="0px" y="0px"
	 viewBox="0 0 1080 1080" style="enable-background:new 0 0 1080 1080;" xml:space="preserve">
<style type="text/css">
	.st0{opacity:0.64;}
	.st1{fill:#F5FCFF;}
	.st2{fill:none;stroke:#E9F7FF;stroke-miterlimit:10;}
	.st3{fill:#FFBE55;}
	.st4{fill:#FCD2B1;}
	.st5{fill:#F2F2F2;}
	.st6{fill:#B0E1FF;}
	.st7{fill:#E9F7FF;}
	.st8{fill:#2390E2;}
	.st9{fill:#D2F0FF;}
	.st10{fill:#FDFEFF;}
	.st11{fill:#C2EEFF;}
	.st12{fill:#0E538C;}
	.st13{fill:#FFE3CA;}
	.st14{fill:#FFFFFF;}
</style>
<g class="st0">
	<path class="st1" d="M373.21,366c-18.29,7.77-36.47,17.25-49.26,32.15c-12.79,14.89-19.2,36.29-11.53,54.2
		c10.25,23.93,42.73,37.84,42.87,63.76c0.11,18.56-17.51,32.73-35.3,39.48c-17.79,6.75-37.48,9.18-53.66,19.04
		c-24.41,14.88-35.86,43.69-40.55,71.33c-4.86,28.7-2.89,61.37,18,82.2c25.96,25.88,68.9,22.96,105.66,17.44
		c49.05-7.36,97.88-16.02,146.71-24.67c107.03-18.97,214.06-37.93,321.09-56.9c11.48-2.03,23.42-4.26,32.74-11.07
		c18.52-13.53,20.09-41.47,9.32-61.41c-10.76-19.94-30.67-33.49-50.45-45.22c-19.78-11.73-40.66-22.82-55.47-40.13
		s-22.18-42.94-10.97-62.65c9.5-16.7,29.9-25.62,38.8-42.63c11.72-22.41-1.77-51.02-23.03-65.33
		C736.9,321.3,469.82,324.93,373.21,366z"/>
</g>
<path class="st2" d="M471,271.31V509.9c0,3.47-2.08,6.31-4.61,6.31H119.11c-2.54,0-4.61-2.84-4.61-6.31V271.31
	c0-3.47,2.08-6.31,4.61-6.31h347.27C468.92,265,471,267.84,471,271.31z"/>
<path class="st3" d="M550.5,640.82l-14.5,0.16l-14.5-0.16C481.19,646,394.65,667,386,771c48.34,0,129.57,0,148.08,0
	c2.48,0,3.85,0,3.85,0c18.51,0,99.74,0,148.08,0C677.35,667,590.81,646,550.5,640.82z"/>
<polygon class="st4" points="517.17,599 525,656 540,690 555,656 563.83,599 "/>
<circle class="st4" cx="598.5" cy="718.5" r="16.5"/>
<path class="st5" d="M963.8,794H108.2c-8.36,0-15.2-6.84-15.2-15.2l0,0c0-8.36,6.84-15.2,15.2-15.2H963.8
	c8.36,0,15.2,6.84,15.2,15.2l0,0C979,787.16,972.16,794,963.8,794z"/>
<g>
	<path class="st6" d="M540,724c-91.53,0-166-74.47-166-166c0-91.53,74.47-166,166-166c91.53,0,166,74.47,166,166
		C706,649.53,631.53,724,540,724z M540,401c-86.57,0-157,70.43-157,157s70.43,157,157,157s157-70.43,157-157S626.57,401,540,401z"/>
</g>
<g>
	<path class="st7" d="M459,251.31V489.9c0,3.47-2.08,6.31-4.61,6.31H107.11c-2.54,0-4.61-2.84-4.61-6.31V251.31
		c0-3.47,2.08-6.31,4.61-6.31h347.27C456.92,245,459,247.84,459,251.31z"/>
	<path class="st8" d="M459,251.84v27.31H102.5v-27.31c0-3.61,2.08-6.56,4.61-6.56h347.27C456.92,245.28,459,248.23,459,251.84z"/>
	<path class="st9" d="M179.73,359.16h-56.53c-2.54,0-4.61-2.08-4.61-4.61v-56.53c0-2.54,2.08-4.61,4.61-4.61h56.53
		c2.54,0,4.61,2.08,4.61,4.61v56.53C184.34,357.08,182.26,359.16,179.73,359.16z"/>
	<g>
		<path class="st10" d="M431.95,464.51h-65.53c-1.02,0-1.85-0.83-1.85-1.85v-6.31c0-1.02,0.83-1.85,1.85-1.85h65.53
			c1.02,0,1.85,0.83,1.85,1.85v6.31C433.8,463.68,432.97,464.51,431.95,464.51z"/>
		<path class="st11" d="M419.33,481.58h-40.29c-0.8,0-1.46-0.66-1.46-1.46v-7.08c0-0.8,0.66-1.46,1.46-1.46h40.29
			c0.8,0,1.46,0.66,1.46,1.46v7.08C420.79,480.93,420.13,481.58,419.33,481.58z"/>
		<circle class="st9" cx="399.24" cy="415.32" r="28.86"/>
	</g>
	<path class="st9" d="M379.89,309.76H197.34c-1.97,0-3.58-1.61-3.58-3.58v-6.57c0-1.97,1.61-3.58,3.58-3.58h182.55
		c1.97,0,3.58,1.61,3.58,3.58v6.57C383.47,308.15,381.86,309.76,379.89,309.76z"/>
	<path class="st9" d="M379.89,333.32H197.34c-1.97,0-3.58-1.61-3.58-3.58v-6.57c0-1.97,1.61-3.58,3.58-3.58h182.55
		c1.97,0,3.58,1.61,3.58,3.58v6.57C383.47,331.7,381.86,333.32,379.89,333.32z"/>
	<path class="st9" d="M379.89,356.87H197.34c-1.97,0-3.58-1.61-3.58-3.58v-6.57c0-1.97,1.61-3.58,3.58-3.58h182.55
		c1.97,0,3.58,1.61,3.58,3.58v6.57C383.47,355.25,381.86,356.87,379.89,356.87z"/>
	<g>
		<path class="st10" d="M183.99,464.51h-65.53c-1.02,0-1.85-0.83-1.85-1.85v-6.31c0-1.02,0.83-1.85,1.85-1.85h65.53
			c1.02,0,1.85,0.83,1.85,1.85v6.31C185.83,463.68,185,464.51,183.99,464.51z"/>
		<path class="st11" d="M171.37,481.58h-40.29c-0.8,0-1.46-0.66-1.46-1.46v-7.08c0-0.8,0.66-1.46,1.46-1.46h40.29
			c0.8,0,1.46,0.66,1.46,1.46v7.08C172.82,480.93,172.17,481.58,171.37,481.58z"/>
		<circle class="st9" cx="151.28" cy="415.32" r="28.86"/>
	</g>
	<g>
		<path class="st10" d="M307.97,464.51h-65.53c-1.02,0-1.85-0.83-1.85-1.85v-6.31c0-1.02,0.83-1.85,1.85-1.85h65.53
			c1.02,0,1.85,0.83,1.85,1.85v6.31C309.81,463.68,308.98,464.51,307.97,464.51z"/>
		<path class="st11" d="M295.35,481.58h-40.29c-0.8,0-1.46-0.66-1.46-1.46v-7.08c0-0.8,0.66-1.46,1.46-1.46h40.29
			c0.8,0,1.46,0.66,1.46,1.46v7.08C296.81,480.93,296.15,481.58,295.35,481.58z"/>
		<circle class="st9" cx="275.26" cy="415.32" r="28.86"/>
	</g>
</g>
<path class="st12" d="M654.83,568.58c-2.92-10.04-10.25-18.09-17.35-25.76c-5.5-5.94-11-11.87-16.5-17.81
	c0-0.34,0.03-0.67,0.03-1.01c0-44.18-27.82-87-72-87c-41.85,0-83.36,38.41-87.63,80.01c-2.94,2.96-5.77,6.03-8.43,9.25
	c-10.12,12.25-17.89,26.95-19.37,42.76c-0.83,8.88,0.44,18.18,5.06,25.81c4.62,7.63,12.94,13.3,21.86,13.34
	c11.66,0.06,22.19-8.98,33.79-7.81c9.8,0.99,17.61,9.06,27.29,10.91c19.72,3.76,37.14-19.09,56.92-15.66
	c9.93,1.72,17.48,9.71,26.62,13.95c12.24,5.68,27.67,3.95,38.15-4.56C653.74,596.49,658.6,581.54,654.83,568.58z"/>
<path class="st13" d="M473.5,522.5c0-37,30-67,67-67s67,30,67,67s-30,98.5-67,98.5S473.5,559.5,473.5,522.5z"/>
<path class="st12" d="M467,535c62.45-3.18,73.09-39.76,73.09-39.76c14.82,14.82,38.1,40.22,71.45,40.22
	c16.14-16.14-26.99-92.09-71.45-88.91C500.93,441.26,467,501.13,467,535z"/>
<g>
	<g>
		<path class="st7" d="M798.04,539h-45.59c-4.94,0-8.96-4.02-8.96-8.96v-45.59c0-4.94,4.02-8.96,8.96-8.96h45.59
			c4.94,0,8.96,4.02,8.96,8.96v45.59C807,534.98,802.98,539,798.04,539z M752.46,480.38c-2.24,0-4.07,1.83-4.07,4.07v45.59
			c0,2.24,1.83,4.07,4.07,4.07h45.59c2.24,0,4.07-1.83,4.07-4.07v-45.59c0-2.24-1.83-4.07-4.07-4.07H752.46z"/>
	</g>
	<path class="st7" d="M968.32,488.83H818.75c-1.61,0-2.94-1.32-2.94-2.94v-5.39c0-1.61,1.32-2.94,2.94-2.94h149.57
		c1.61,0,2.94,1.32,2.94,2.94v5.39C971.26,487.51,969.94,488.83,968.32,488.83z"/>
	<path class="st7" d="M968.32,513.82H818.75c-1.61,0-2.94-1.32-2.94-2.94v-5.39c0-1.61,1.32-2.94,2.94-2.94h149.57
		c1.61,0,2.94,1.32,2.94,2.94v5.39C971.26,512.5,969.94,513.82,968.32,513.82z"/>
	<path class="st7" d="M913.62,538.81h-95.45c-1.3,0-2.36-1.06-2.36-2.36v-6.54c0-1.3,1.06-2.36,2.36-2.36h95.45
		c1.3,0,2.36,1.06,2.36,2.36v6.54C915.97,537.75,914.91,538.81,913.62,538.81z"/>
</g>
<g>
	<g>
		<path class="st7" d="M798.04,634h-45.59c-4.94,0-8.96-4.02-8.96-8.96v-45.59c0-4.94,4.02-8.96,8.96-8.96h45.59
			c4.94,0,8.96,4.02,8.96,8.96v45.59C807,629.98,802.98,634,798.04,634z M752.46,575.38c-2.24,0-4.07,1.83-4.07,4.07v45.59
			c0,2.24,1.83,4.07,4.07,4.07h45.59c2.24,0,4.07-1.83,4.07-4.07v-45.59c0-2.24-1.83-4.07-4.07-4.07H752.46z"/>
	</g>
	<path class="st7" d="M968.32,583.83H818.75c-1.61,0-2.94-1.32-2.94-2.94v-5.39c0-1.61,1.32-2.94,2.94-2.94h149.57
		c1.61,0,2.94,1.32,2.94,2.94v5.39C971.26,582.51,969.94,583.83,968.32,583.83z"/>
	<path class="st7" d="M968.32,608.82H818.75c-1.61,0-2.94-1.32-2.94-2.94v-5.39c0-1.61,1.32-2.94,2.94-2.94h149.57
		c1.61,0,2.94,1.32,2.94,2.94v5.39C971.26,607.5,969.94,608.82,968.32,608.82z"/>
	<path class="st7" d="M913.62,633.81h-95.45c-1.3,0-2.36-1.06-2.36-2.36v-6.54c0-1.3,1.06-2.36,2.36-2.36h95.45
		c1.3,0,2.36,1.06,2.36,2.36v6.54C915.97,632.75,914.91,633.81,913.62,633.81z"/>
</g>
<g>
	<g>
		<path class="st7" d="M798.04,729h-45.59c-4.94,0-8.96-4.02-8.96-8.96v-45.59c0-4.94,4.02-8.96,8.96-8.96h45.59
			c4.94,0,8.96,4.02,8.96,8.96v45.59C807,724.98,802.98,729,798.04,729z M752.46,670.38c-2.24,0-4.07,1.83-4.07,4.07v45.59
			c0,2.24,1.83,4.07,4.07,4.07h45.59c2.24,0,4.07-1.83,4.07-4.07v-45.59c0-2.24-1.83-4.07-4.07-4.07H752.46z"/>
	</g>
	<path class="st7" d="M968.32,678.83H818.75c-1.61,0-2.94-1.32-2.94-2.94v-5.39c0-1.61,1.32-2.94,2.94-2.94h149.57
		c1.61,0,2.94,1.32,2.94,2.94v5.39C971.26,677.51,969.94,678.83,968.32,678.83z"/>
	<path class="st7" d="M968.32,703.82H818.75c-1.61,0-2.94-1.32-2.94-2.94v-5.39c0-1.61,1.32-2.94,2.94-2.94h149.57
		c1.61,0,2.94,1.32,2.94,2.94v5.39C971.26,702.5,969.94,703.82,968.32,703.82z"/>
	<path class="st7" d="M913.62,728.81h-95.45c-1.3,0-2.36-1.06-2.36-2.36v-6.54c0-1.3,1.06-2.36,2.36-2.36h95.45
		c1.3,0,2.36,1.06,2.36,2.36v6.54C915.97,727.75,914.91,728.81,913.62,728.81z"/>
</g>
<g>
	<g>
		<g>
			<path class="st3" d="M170.79,660.39h-14.23c-1.96,0-3.56,1.59-3.56,3.56v64.05c0,1.96,1.59,3.56,3.56,3.56h14.23
				c1.96,0,3.56-1.59,3.56-3.56v-64.05C174.35,661.99,172.75,660.39,170.79,660.39z"/>
		</g>
	</g>
	<g>
		<g>
			<path class="st3" d="M253.12,660.39c-0.57-0.1-27.41,0-27.41,0l3.75-10.23c2.59-7.06,0.91-17.85-6.26-21.68
				c-2.34-1.25-5.6-1.88-8.23-1.21c-1.51,0.38-2.84,1.38-3.63,2.72c-0.91,1.54-0.82,3.34-1.14,5.04c-0.82,4.33-2.87,8.45-6.04,11.54
				c-5.52,5.39-22.69,20.93-22.69,20.93v56.94h59.31c8,0,13.25-8.93,9.3-15.91c4.71-3.01,6.31-9.36,3.56-14.23
				c4.71-3.01,6.31-9.36,3.56-14.23C265.32,674.87,262.6,662,253.12,660.39z"/>
		</g>
	</g>
</g>
<g>
	<path class="st3" d="M995.91,275.88H679.19c-5,0-9.09,4.09-9.09,9.09v93.17c0,4.16,2.42,7.77,5.92,9.51
		c-0.15,4.45-0.61,8.09-1.29,10.99c-0.73,3.14,3.08,5.27,5.44,3.07c4.33-4.04,8.29-9.38,10.68-12.94h305.06c5,0,9.09-4.09,9.09-9.09
		v-94.72C1005,279.97,1000.91,275.88,995.91,275.88z"/>
	<circle class="st14" cx="716.52" cy="332.06" r="31.47"/>
	<path class="st14" d="M984.75,315.66H768.6c-1.71,0-3.11-1.4-3.11-3.11v-8.85c0-1.71,1.4-3.11,3.11-3.11h216.16
		c1.71,0,3.11,1.4,3.11,3.11v8.85C987.86,314.26,986.46,315.66,984.75,315.66z"/>
	<path class="st14" d="M932.96,339.44H768.21c-1.5,0-2.72-1.22-2.72-2.72v-9.63c0-1.5,1.22-2.72,2.72-2.72h164.75
		c1.5,0,2.72,1.22,2.72,2.72v9.63C935.68,338.22,934.45,339.44,932.96,339.44z"/>
	<path class="st14" d="M949.45,363.23H768.34c-1.57,0-2.85-1.28-2.85-2.85v-9.37c0-1.57,1.28-2.85,2.85-2.85h181.11
		c1.57,0,2.85,1.28,2.85,2.85v9.37C952.3,361.94,951.02,363.23,949.45,363.23z"/>
</g>
<g>
	<circle class="st3" cx="670.5" cy="454.5" r="37.5"/>
</g>
<g>
	<g>
		<path class="st14" d="M670.5,475.33c-1.59,0-2.88-1.29-2.88-2.88v-35.9c0-1.59,1.29-2.88,2.88-2.88s2.88,1.29,2.88,2.88v35.9
			C673.38,474.04,672.09,475.33,670.5,475.33z"/>
	</g>
	<g>
		<path class="st14" d="M688.45,457.38h-35.9c-1.59,0-2.88-1.29-2.88-2.88s1.29-2.88,2.88-2.88h35.9c1.59,0,2.88,1.29,2.88,2.88
			S690.04,457.38,688.45,457.38z"/>
	</g>
</g>
</svg>
